<?xml version="1.0" encoding="utf-8"?>
<!-- Generator: Adobe Illustrator 22.0.0, SVG Export Plug-In . SVG Version: 6.00 Build 0)  -->
<svg version="1.1" id="Layer_1" xmlns="http://www.w3.org/2000/svg" xmlns:xlink="http://www.w3.org/1999/xlink" x="0px" y="0px"
	 viewBox="0 0 498.8 546.2" style="enable-background:new 0 0 498.8 546.2;" xml:space="preserve">
<style type="text/css">
	.st0{fill:url(#SVGID_1_);}
	.st1{fill:url(#SVGID_2_);}
	.st2{fill:url(#SVGID_3_);}
	.st3{fill:url(#SVGID_4_);}
	.st4{fill:url(#SVGID_5_);}
	.st5{fill:url(#SVGID_6_);}
	.st6{fill:url(#SVGID_7_);}
	.st7{fill:url(#SVGID_8_);}
	.st8{fill:url(#SVGID_9_);}
</style>
<g id="mushroom_x5F_logo">
	<g>
		
			<linearGradient id="SVGID_1_" gradientUnits="userSpaceOnUse" x1="5.4495" y1="402.8881" x2="491.3588" y2="402.8881" gradientTransform="matrix(1 0 0 -1 0 548)">
			<stop  offset="0" style="stop-color:#CCE0F4"/>
			<stop  offset="6.405089e-02" style="stop-color:#C3DCF2"/>
			<stop  offset="0.1706" style="stop-color:#A9D2EE"/>
			<stop  offset="0.3066" style="stop-color:#80C2E7"/>
			<stop  offset="0.4649" style="stop-color:#47ACDE"/>
			<stop  offset="0.5674" style="stop-color:#1E9CD7"/>
			<stop  offset="0.8652" style="stop-color:#0075BE"/>
			<stop  offset="0.9944" style="stop-color:#005B97"/>
		</linearGradient>
		<path class="st0" d="M218.4,203.1c-9.4,1.7-18.9,3.3-28.3,4.8c-9.5,1.5-19,2.8-28.5,4.1s-19,2.4-28.6,3.3
			c-9.6,1-19.1,1.8-28.7,2.5s-19.2,1-28.9,1.1S56,218.8,46.3,218c-4.9-0.4-9.8-1-14.7-2c-2.5-0.5-5-1.1-7.5-1.9
			c-2.5-0.8-5-1.7-7.6-3.1c-1.3-0.7-2.6-1.5-3.9-2.6s-2.5-2.4-3.5-4.2s-1.6-4-1.6-6.1s0.6-4.1,1.3-5.7c1.4-3.2,3.4-5.5,5.3-7.5
			c2-2,4-3.7,6.1-5.3c4.1-3.1,8.4-5.7,12.7-8.2c4.3-2.4,8.7-4.7,13.1-6.8c8.8-4.2,17.8-7.9,26.8-11.4c18.1-7,36.4-13,54.8-18.6
			c36.8-11.2,74.2-20.4,111.5-29c18.7-4.3,37.4-8.4,56.2-12.3s37.7-7.5,56.6-10.8c19-3.2,38-6.2,57.2-8.3c9.6-1.1,19.2-2,29-2.5
			c4.9-0.3,9.8-0.4,14.7-0.4c4.9,0,9.9,0.2,15,0.8c2.6,0.3,5.1,0.7,7.8,1.3c1.3,0.3,2.7,0.7,4.1,1.3c1.4,0.5,2.9,1.2,4.4,2.3
			c1.5,1,3.2,2.6,4.3,4.9c0.5,1.2,0.9,2.5,1,3.7c0.1,1.3-0.1,2.4-0.3,3.5c-0.5,2.1-1.3,3.6-2.2,5c-0.9,1.3-1.8,2.5-2.7,3.5
			c-3.8,4.1-7.8,7.1-11.9,10s-8.3,5.4-12.5,7.9c-8.5,4.9-17.1,9.2-25.8,13.4c-8.7,4.2-17.4,8.2-26.2,12
			c-35.3,15.2-71.2,28.7-107.4,41.1l26.3-11.7c8.8-3.9,17.5-7.8,26.2-11.8c17.4-7.9,34.8-16,51.8-24.5c8.6-4.2,17.1-8.5,25.4-13
			c8.4-4.5,16.6-9.2,24.6-14.2c4-2.5,7.8-5.1,11.5-7.8c3.6-2.7,7.2-5.7,9.8-8.7c0.6-0.8,1.2-1.5,1.6-2.2s0.7-1.3,0.7-1.6
			c0-0.1,0-0.2,0-0.1s0,0.2,0,0.3c0.1,0.2,0,0-0.5-0.3c-0.9-0.6-2.8-1.3-4.8-1.7c-2-0.4-4.2-0.7-6.4-0.9c-8.9-0.7-18.3-0.2-27.7,0.5
			c-9.4,0.7-18.8,1.8-28.2,3.1c-18.8,2.6-37.6,5.7-56.3,9.2c-18.7,3.4-37.4,7.2-56.1,11.2c-18.7,3.9-37.3,8.1-55.9,12.3
			c-37.3,8.5-74.3,17.4-110.9,27.9c-9.1,2.6-18.2,5.4-27.3,8.2c-9.1,2.9-18,5.9-26.9,9.1c-8.9,3.2-17.7,6.7-26.2,10.4
			c-4.3,1.9-8.5,3.9-12.6,6s-8,4.4-11.6,7c-1.8,1.3-3.5,2.6-4.9,4s-2.6,2.9-3.2,4c-0.3,0.6-0.4,1-0.4,1.3s0,0.4,0.1,0.7
			c0.3,0.7,1.5,1.8,3.1,2.7s3.6,1.8,5.6,2.5s4.2,1.3,6.4,1.8c4.4,1.1,9,1.8,13.6,2.4c9.3,1.2,18.7,1.8,28.2,2.1s19,0.3,28.5,0.1
			C142.1,210,180.3,206.8,218.4,203.1z"/>
	</g>
	<g>
		
			<linearGradient id="SVGID_2_" gradientUnits="userSpaceOnUse" x1="8.3007" y1="455.8707" x2="477.5922" y2="455.8707" gradientTransform="matrix(1 0 0 -1 0 548)">
			<stop  offset="0" style="stop-color:#CCE0F4"/>
			<stop  offset="6.405089e-02" style="stop-color:#C3DCF2"/>
			<stop  offset="0.1706" style="stop-color:#A9D2EE"/>
			<stop  offset="0.3066" style="stop-color:#80C2E7"/>
			<stop  offset="0.4649" style="stop-color:#47ACDE"/>
			<stop  offset="0.5674" style="stop-color:#1E9CD7"/>
			<stop  offset="0.8652" style="stop-color:#0075BE"/>
			<stop  offset="0.9944" style="stop-color:#005B97"/>
		</linearGradient>
		<path class="st1" d="M14.4,175.1c4.9-9.8,10.8-19.2,17-28.3s13.1-17.8,20.2-26.3c14.3-16.8,30.3-32.4,47.8-46.2
			c17.4-13.8,36.4-25.9,56.5-35.7c10.1-4.9,20.4-9.2,31-12.9s21.4-6.8,32.3-9.3c10.9-2.4,22-4.2,33.2-5.5l8.4-0.8l8.4-0.5
			c2.8-0.2,5.6-0.2,8.4-0.3s5.6-0.2,8.4-0.1l8.4,0.1l8.4,0.4c2.8,0.1,5.6,0.4,8.3,0.6c2.8,0.3,5.6,0.5,8.3,0.8
			c5.5,0.7,11.1,1.3,16.5,2.3l4.1,0.7l2.1,0.3l2,0.4l8.2,1.7c2.7,0.5,5.4,1.2,8.1,1.9c2.7,0.7,5.4,1.3,8.1,2l8,2.2
			c1.3,0.4,2.7,0.7,4,1.1l4,1.3l7.9,2.5c2.6,0.9,5.2,1.8,7.8,2.8c2.6,1,5.2,1.8,7.8,2.9l7.7,3.1c20.4,8.4,40.2,18.2,59,29.5
			c-20.2-8.6-40.5-16.6-61.3-23.1l-7.8-2.4c-2.6-0.8-5.2-1.5-7.8-2.2c-2.6-0.7-5.2-1.5-7.8-2.2l-7.9-2l-3.9-1
			c-1.3-0.3-2.6-0.6-4-0.9l-7.9-1.8c-2.6-0.6-5.3-1-8-1.5s-5.3-1.1-8-1.4l-8-1.3l-2-0.3l-2-0.2l-4-0.5c-2.7-0.3-5.3-0.7-8-0.9
			l-8-0.7c-2.7-0.3-5.4-0.3-8-0.5l-4-0.2c-1.3-0.1-2.7-0.1-4-0.1l-8-0.2l-8,0.1c-21.4,0.3-42.8,2.8-63.6,7.5
			c-10.4,2.3-20.7,5.3-30.8,8.7s-20.1,7.4-29.8,11.9c-19.5,9-38,19.9-55.6,32.5c-17.5,12.5-34,26.7-49.3,42.1
			c-3.8,3.8-7.6,7.7-11.3,11.8c-3.7,4-7.3,8.1-10.8,12.2c-3.5,4.1-7,8.4-10.3,12.7C20.8,166.2,17.5,170.6,14.4,175.1z"/>
	</g>
	<g>
		
			<linearGradient id="SVGID_3_" gradientUnits="userSpaceOnUse" x1="208.6616" y1="371.2077" x2="297.1351" y2="371.2077" gradientTransform="matrix(1 0 0 -1 0 548)">
			<stop  offset="0" style="stop-color:#CCE0F4"/>
			<stop  offset="6.405089e-02" style="stop-color:#C3DCF2"/>
			<stop  offset="0.1706" style="stop-color:#A9D2EE"/>
			<stop  offset="0.3066" style="stop-color:#80C2E7"/>
			<stop  offset="0.4649" style="stop-color:#47ACDE"/>
			<stop  offset="0.5674" style="stop-color:#1E9CD7"/>
			<stop  offset="0.8652" style="stop-color:#0075BE"/>
			<stop  offset="0.9944" style="stop-color:#005B97"/>
		</linearGradient>
		<path class="st2" d="M224.4,191.1c-2.4,0.3-4.8,0.6-7.3,0.6c-1.2,0-2.5-0.1-3.8-0.3c-0.6-0.1-1.3-0.3-1.9-0.6
			c-0.3-0.2-0.7-0.4-1-0.7s-0.6-0.7-0.7-1.2c-0.2-1,0.1-1.8,0.5-2.5c0.4-0.6,0.8-1.2,1.2-1.7c0.9-1,1.9-1.8,2.9-2.6
			c2-1.5,4.1-2.8,6.2-4.1c8.6-4.9,17.7-8.5,27.1-11.4c9.5-2.6,19.2-4.1,29-4.6c2.5-0.1,4.9-0.2,7.4,0c2.5,0.1,4.9,0.3,7.4,1
			c0.6,0.2,1.2,0.4,1.9,0.6c0.6,0.3,1.2,0.6,1.8,1.2c0.3,0.3,0.5,0.7,0.6,1.1c0.1,0.4,0.1,0.9-0.1,1.2c-0.2,0.8-0.7,1.3-1.1,1.8
			c-1.8,1.8-4,2.9-6.2,4c1-0.7,2-1.4,2.9-2.2s1.8-1.6,2.5-2.5c0.3-0.5,0.6-0.9,0.7-1.4c0.1-0.4-0.1-0.7-0.4-1
			c-0.6-0.6-1.8-0.9-2.9-1c-2.3-0.4-4.7-0.3-7-0.3c-2.4,0.1-4.8,0.3-7.1,0.5c-4.8,0.5-9.5,1.2-14.2,2.1c-4.7,0.9-9.4,1.9-14,3.2
			s-9.1,2.9-13.6,4.6c-4.5,1.7-8.9,3.6-13.2,5.7c-2.1,1.1-4.2,2.2-6.2,3.5c-1,0.6-1.9,1.3-2.7,2.1c-0.4,0.4-0.8,0.8-1,1.2
			c-0.3,0.4-0.4,0.8-0.4,1s0.2,0.5,0.6,0.8c0.4,0.3,0.9,0.5,1.5,0.6c1.1,0.3,2.3,0.5,3.4,0.7c1.2,0.2,2.4,0.3,3.6,0.3
			C222,191.1,223.2,191.1,224.4,191.1z"/>
	</g>
	<g>
		
			<linearGradient id="SVGID_4_" gradientUnits="userSpaceOnUse" x1="229.5571" y1="185.9" x2="259.8459" y2="185.9" gradientTransform="matrix(1 0 0 -1 0 548)">
			<stop  offset="0" style="stop-color:#CCE0F4"/>
			<stop  offset="6.405089e-02" style="stop-color:#C3DCF2"/>
			<stop  offset="0.1706" style="stop-color:#A9D2EE"/>
			<stop  offset="0.3066" style="stop-color:#80C2E7"/>
			<stop  offset="0.4649" style="stop-color:#47ACDE"/>
			<stop  offset="0.5674" style="stop-color:#1E9CD7"/>
			<stop  offset="0.8652" style="stop-color:#0075BE"/>
			<stop  offset="0.9944" style="stop-color:#005B97"/>
		</linearGradient>
		<path class="st3" d="M234.9,185l3,10.8l1.5,5.4l1.3,5.4l2.6,10.9l2.3,11l1.1,5.5l1,5.5l2,11l1.7,11.1c0.3,1.8,0.6,3.7,0.8,5.5
			l0.7,5.6c3.8,29.6,5.6,59.5,5.9,89.5v11.2l-0.1,11.2c0,3.7-0.1,7.5-0.2,11.2l-0.1,5.6l-0.2,5.6c-0.6,15-1.9,29.9-3.9,44.7
			l-1.6,11.1c-0.6,3.7-1.1,7.4-1.8,11.1c-1.3,7.4-2.6,14.7-4.3,22c-3.2,14.6-6.8,29.2-11.7,43.3l-1-0.2c4.1-29.5,7.7-59,10.4-88.4
			c1.4-14.7,2.7-29.5,3.9-44.2c1.3-14.7,2.2-29.5,2.6-44.3c0.8-29.6,0-59.3-2.8-88.8c-2.5-29.6-7.4-58.9-14-87.9L234.9,185z"/>
	</g>
	<g>
		
			<linearGradient id="SVGID_5_" gradientUnits="userSpaceOnUse" x1="274.5112" y1="267.7361" x2="301.7347" y2="267.7361" gradientTransform="matrix(1 0 0 -1 0 548)">
			<stop  offset="0" style="stop-color:#CCE0F4"/>
			<stop  offset="6.405089e-02" style="stop-color:#C3DCF2"/>
			<stop  offset="0.1706" style="stop-color:#A9D2EE"/>
			<stop  offset="0.3066" style="stop-color:#80C2E7"/>
			<stop  offset="0.4649" style="stop-color:#47ACDE"/>
			<stop  offset="0.5674" style="stop-color:#1E9CD7"/>
			<stop  offset="0.8652" style="stop-color:#0075BE"/>
			<stop  offset="0.9944" style="stop-color:#005B97"/>
		</linearGradient>
		<path class="st4" d="M287.8,264.3c2.1,29.7,4.6,59.4,4.9,89.2c0.1,10.7,0,21.4-0.2,32c0.3-0.1,0.6-0.2,0.8-0.3
			c2-0.6,4.2-0.7,6.3-0.9c0,0,0,0,0.1,0c0.5-10.2,0.9-20.4,1.2-30.7c0.1-7.6,0.2-15.1,0.2-22.6c0.1-7.5,0-15.1-0.1-22.6
			c-0.2-7.6-0.4-15.1-1-22.6c-0.3-3.8-0.6-7.6-0.9-11.3l-1.2-11.2c-0.4-3.7-0.9-7.5-1.4-11.2c-0.6-3.7-1-7.5-1.6-11.2l-1.9-11.1
			c-0.4-1.9-0.6-3.8-1-5.6l-1.1-5.5c-0.8-3.7-1.5-7.4-2.3-11.1l-2.6-11c-0.5-1.9-0.9-3.7-1.4-5.5l-1.5-5.4l-1.6-5.4l-1.6-5.4l-1,0.2
			c1.6,14.9,3.6,29.7,5,44.6C285.4,234.6,286.7,249.5,287.8,264.3z"/>
		
			<linearGradient id="SVGID_6_" gradientUnits="userSpaceOnUse" x1="274.5112" y1="83.6843" x2="301.7347" y2="83.6843" gradientTransform="matrix(1 0 0 -1 0 548)">
			<stop  offset="0" style="stop-color:#CCE0F4"/>
			<stop  offset="6.405089e-02" style="stop-color:#C3DCF2"/>
			<stop  offset="0.1706" style="stop-color:#A9D2EE"/>
			<stop  offset="0.3066" style="stop-color:#80C2E7"/>
			<stop  offset="0.4649" style="stop-color:#47ACDE"/>
			<stop  offset="0.5674" style="stop-color:#1E9CD7"/>
			<stop  offset="0.8652" style="stop-color:#0075BE"/>
			<stop  offset="0.9944" style="stop-color:#005B97"/>
		</linearGradient>
		<path class="st5" d="M290.7,429.1c-0.3,4.6-0.6,9.3-1,13.9c-1.3,18.9-3.2,37.8-5.8,56.5c0.4-0.6,0.9-1.2,1.3-1.8
			c0.7-1.1,1.4-2.1,2.2-3.1c0-0.1,0.1-0.1,0.1-0.2c0-0.1,0.1-0.1,0.1-0.2c0.4-2,0.7-4,1-6c2.4-14.8,4.5-29.7,6.2-44.6
			c0.5-4,0.9-8,1.3-12.1C294.2,431,292.3,430.2,290.7,429.1z"/>
	</g>
	<g id="small_x5F_mushroom">
		<g>
			
				<linearGradient id="SVGID_7_" gradientUnits="userSpaceOnUse" x1="258.6962" y1="63.7" x2="315.1094" y2="63.7" gradientTransform="matrix(1 0 0 -1 0 548)">
				<stop  offset="0" style="stop-color:#CCE0F4"/>
				<stop  offset="6.405089e-02" style="stop-color:#C3DCF2"/>
				<stop  offset="0.1706" style="stop-color:#A9D2EE"/>
				<stop  offset="0.3066" style="stop-color:#80C2E7"/>
				<stop  offset="0.4649" style="stop-color:#47ACDE"/>
				<stop  offset="0.5674" style="stop-color:#1E9CD7"/>
				<stop  offset="0.8652" style="stop-color:#0075BE"/>
				<stop  offset="0.9944" style="stop-color:#005B97"/>
			</linearGradient>
			<path class="st6" d="M312.6,435.1c1.2,4.7,1.2,9.7,0.8,14.5c-0.1,2.5-0.6,4.8-1,7.3c-0.2,1.2-0.5,2.4-0.8,3.6l-0.9,3.6
				c-0.7,2.3-1.5,4.6-2.3,6.9c-0.9,2.3-2,4.4-3,6.7l-0.8,1.6l-0.9,1.6L302,484l-1.8,3.2c-0.6,1-1.3,2-2,3.1c-1.3,2-2.6,4.1-3.9,6.1
				l-4.3,5.8c-0.7,1-1.4,1.9-2.1,2.9l-2.3,2.8l-4.6,5.5c-0.8,0.9-1.6,1.8-2.4,2.6l-2.5,2.6l-5,5.2c-3.5,3.3-7,6.5-10.6,9.7l-0.3-0.4
				c3.3-3.5,6.5-6.9,9.8-10.4l4.6-5.4l2.3-2.7c0.8-0.9,1.6-1.8,2.2-2.8l4.3-5.7l2.1-2.8c0.7-1,1.3-2,2-3l3.9-5.9
				c1.2-2,2.3-4.1,3.5-6.1c0.6-1,1.2-2,1.7-3.1l1.5-3.2l1.5-3.2l0.7-1.6l0.6-1.6l1.3-3.2c0.4-1.1,0.9-2.1,1.3-3.2l1.2-3.3
				c0.4-1.1,0.9-2.2,1.2-3.3c1.5-4.4,2.9-8.8,3.9-13.4c1.1-4.5,1.9-9.2,2.2-13.9L312.6,435.1z"/>
		</g>
		<g>
			
				<linearGradient id="SVGID_8_" gradientUnits="userSpaceOnUse" x1="286.9204" y1="61.2499" x2="330.8917" y2="61.2499" gradientTransform="matrix(1 0 0 -1 0 548)">
				<stop  offset="0" style="stop-color:#CCE0F4"/>
				<stop  offset="6.405089e-02" style="stop-color:#C3DCF2"/>
				<stop  offset="0.1706" style="stop-color:#A9D2EE"/>
				<stop  offset="0.3066" style="stop-color:#80C2E7"/>
				<stop  offset="0.4649" style="stop-color:#47ACDE"/>
				<stop  offset="0.5674" style="stop-color:#1E9CD7"/>
				<stop  offset="0.8652" style="stop-color:#0075BE"/>
				<stop  offset="0.9944" style="stop-color:#005B97"/>
			</linearGradient>
			<path class="st7" d="M328.7,440.2c0.2,4.4,0.2,8.7-0.1,13.1c-0.2,2.2-0.5,4.3-0.7,6.5c-0.3,2.2-0.5,4.4-1,6.5
				c-0.9,4.3-1.8,8.6-3.4,12.7l-1.1,3.1c-0.4,1-0.7,2.1-1.1,3.1l-2.5,6.1c-3.5,8-7.6,15.8-12.6,23c-1.3,1.8-2.5,3.6-3.9,5.3
				l-2.1,2.5c-0.7,0.8-1.4,1.6-2.2,2.4c-2.9,3.2-6,6.3-9.6,8.9l-0.3-0.4c3.2-2.8,6-6.1,8.7-9.5l1.9-2.6l1.8-2.6
				c1.3-1.7,2.3-3.6,3.4-5.4c4.4-7.3,8-15.1,10.9-23.1l2-6.1c0.4-1,0.6-2,0.9-3.1l0.8-3.1c1.2-4.1,2.1-8.2,3.2-12.4
				c0.7-2,1-4.1,1.5-6.2s1-4.2,1.6-6.2c0.9-4.2,1.8-8.4,3-12.6L328.7,440.2z"/>
		</g>
		<g>
			
				<linearGradient id="SVGID_9_" gradientUnits="userSpaceOnUse" x1="261.3518" y1="130.2457" x2="399.1161" y2="130.2457" gradientTransform="matrix(1 0 0 -1 0 548)">
				<stop  offset="0" style="stop-color:#CCE0F4"/>
				<stop  offset="6.405089e-02" style="stop-color:#C3DCF2"/>
				<stop  offset="0.1706" style="stop-color:#A9D2EE"/>
				<stop  offset="0.3066" style="stop-color:#80C2E7"/>
				<stop  offset="0.4649" style="stop-color:#47ACDE"/>
				<stop  offset="0.5674" style="stop-color:#1E9CD7"/>
				<stop  offset="0.8652" style="stop-color:#0075BE"/>
				<stop  offset="0.9944" style="stop-color:#005B97"/>
			</linearGradient>
			<path class="st8" d="M343.6,390.8c-3-0.7-6-1.1-9.1-1.4s-6.2-0.4-9.3-0.5c-6.2-0.1-12.5,0.2-18.7,0.7c-6.2,0.6-12.4,1.5-18.4,2.8
				c-3,0.7-6,1.5-8.9,2.5s-5.7,2.2-8,3.8c-1.2,0.8-2.2,1.7-2.8,2.7c-0.6,1-0.8,1.8-0.6,2.8c0.2,1,0.8,2,1.7,3c0.9,1,1.9,1.9,3.1,2.8
				c2.3,1.8,4.9,3.3,7.6,4.7c2.7,1.4,5.5,2.7,8.3,3.9c5.7,2.4,11.5,4.5,17.4,6.5s11.8,3.8,17.8,5.5s11.9,3.7,17.9,5.4
				c6,1.7,12,3.3,18,4.6c6,1.3,12.1,2.4,18.1,2.6c3,0.1,6,0.1,8.7-0.5c1.4-0.3,2.6-0.7,3.7-1.3c1.1-0.6,1.8-1.4,2.3-2.3
				s0.6-2.1,0.5-3.4s-0.5-2.7-1.1-4c-1.1-2.7-2.7-5.3-4.4-7.8c-3.6-4.9-7.9-9.4-12.5-13.6c-4.6-4.1-9.6-8-14.8-11.4
				c-2.6-1.7-5.3-3.3-8.1-4.6C349.3,392.8,346.5,391.6,343.6,390.8z M344.1,388.7c3.2,0.8,6.1,2.1,9,3.5s5.6,3,8.3,4.7
				c5.4,3.4,10.5,7.1,15.3,11.3c4.8,4.1,9.5,8.5,13.5,13.6c2,2.5,3.9,5.2,5.3,8.3c0.7,1.5,1.3,3.2,1.6,5c0.3,1.8,0.2,3.9-0.6,5.8
				c-0.8,2-2.3,3.5-3.9,4.6c-1.6,1-3.3,1.7-5,2.2c-3.4,0.9-6.7,1.1-10,1.2c-6.6,0.1-13-0.7-19.3-1.7s-12.5-2.3-18.7-3.8
				s-12.3-3-18.3-5.1c-12-4-23.9-8.3-35.5-13.9c-2.9-1.4-5.7-2.9-8.5-4.5c-2.8-1.7-5.5-3.5-8.1-5.7c-1.3-1.1-2.5-2.3-3.6-3.8
				c-1.1-1.4-2.1-3.2-2.5-5.3c-0.2-1.1-0.1-2.2,0.2-3.3c0.3-1.1,0.8-2,1.4-2.8c1.2-1.6,2.7-2.7,4.1-3.7c3-1.8,6.1-2.9,9.2-3.9
				c3.1-0.9,6.2-1.6,9.4-2.2c6.3-1.2,12.6-1.8,18.9-2.2c6.3-0.4,12.6-0.5,19-0.3c3.2,0.1,6.3,0.3,9.5,0.6
				C337.8,387.5,341,387.9,344.1,388.7z"/>
		</g>
	</g>
</g>
</svg>
